<svg xmlns="http://www.w3.org/2000/svg" width="1536" height="820" viewBox="0 0 1536 820"><defs><marker id="ac" markerWidth="12" markerHeight="12" refX="10" refY="6" orient="auto"><path d="M0,0 L12,6 L0,12 Z" fill="#6d879b"/></marker><filter id="sc" x="-20%" y="-20%" width="140%" height="140%"><feDropShadow dx="0" dy="4" stdDeviation="7" flood-color="#17324d" flood-opacity=".08"/></filter></defs><style>.t{font-family:'Microsoft YaHei','Noto Sans CJK SC','Segoe UI',sans-serif;fill:#17324d}.title{font-size:42px;font-weight:700}.sub{font-size:20px;fill:#617286}.cardTitle{font-size:24px;font-weight:700}.cardSub{font-size:16px;fill:#617286}.groupTitle{font-size:28px;font-weight:700}.small{font-size:16px;fill:#617286}</style><rect width="1536" height="820" fill="#fbfcfd"/><text x="92" y="84" class="t title">运营数据流程</text><text x="92" y="122" class="t sub">多源业务数据经过聚合计算后形成指挥中心指标</text><g filter="url(#sc)"><rect x="90" y="190" width="360" height="500" rx="26" fill="white" stroke="#3b7694" stroke-width="2"/><text x="122" y="244" class="t groupTitle">数据来源</text><rect x="122" y="286" width="296" height="48" rx="13" fill="#eaf3f8"/><text x="270" y="318" text-anchor="middle" class="t cardTitle" font-size="19">游客会话</text><rect x="122" y="356" width="296" height="48" rx="13" fill="#eaf3f8"/><text x="270" y="388" text-anchor="middle" class="t cardTitle" font-size="19">景点客流</text><rect x="122" y="426" width="296" height="48" rx="13" fill="#eaf3f8"/><text x="270" y="458" text-anchor="middle" class="t cardTitle" font-size="19">路线使用</text><rect x="122" y="496" width="296" height="48" rx="13" fill="#eaf3f8"/><text x="270" y="528" text-anchor="middle" class="t cardTitle" font-size="19">工单反馈</text><rect x="122" y="566" width="296" height="48" rx="13" fill="#eaf3f8"/><text x="270" y="598" text-anchor="middle" class="t cardTitle" font-size="19">设施状态</text></g><line x1="450" y1="440" x2="584" y2="440" stroke="#6d879b" stroke-width="4" marker-end="url(#ac)"/><g filter="url(#sc)"><rect x="600" y="300" width="336" height="280" rx="26" fill="#edf7f4" stroke="#3d8f86" stroke-width="2"/><text x="768" y="365" text-anchor="middle" class="t groupTitle">数据聚合</text><text x="768" y="420" text-anchor="middle" class="t cardTitle" font-size="20">清洗 · 统计 · 分组</text><text x="768" y="465" text-anchor="middle" class="t cardTitle" font-size="20">趋势 · 排名 · 告警</text><text x="768" y="510" text-anchor="middle" class="t cardTitle" font-size="20">30 秒自动刷新</text></g><line x1="936" y1="440" x2="1070" y2="440" stroke="#6d879b" stroke-width="4" marker-end="url(#ac)"/><g filter="url(#sc)"><rect x="1086" y="190" width="360" height="500" rx="26" fill="white" stroke="#d6a34a" stroke-width="2"/><text x="1118" y="244" class="t groupTitle">指挥中心</text><rect x="1118" y="286" width="296" height="48" rx="13" fill="#fff6e7"/><text x="1266" y="318" text-anchor="middle" class="t cardTitle" font-size="19">核心指标</text><rect x="1118" y="356" width="296" height="48" rx="13" fill="#fff6e7"/><text x="1266" y="388" text-anchor="middle" class="t cardTitle" font-size="19">客流趋势</text><rect x="1118" y="426" width="296" height="48" rx="13" fill="#fff6e7"/><text x="1266" y="458" text-anchor="middle" class="t cardTitle" font-size="19">游客分布</text><rect x="1118" y="496" width="296" height="48" rx="13" fill="#fff6e7"/><text x="1266" y="528" text-anchor="middle" class="t cardTitle" font-size="19">热门景点</text><rect x="1118" y="566" width="296" height="48" rx="13" fill="#fff6e7"/><text x="1266" y="598" text-anchor="middle" class="t cardTitle" font-size="19">实时告警</text></g></svg>